<?xml version="1.0" encoding="UTF-8" standalone="no"?>
<!-- Created with Inkscape (http://www.inkscape.org/) -->

<svg
   width="210mm"
   height="297mm"
   viewBox="0 0 210 297"
   version="1.1"
   id="svg5"
   inkscape:version="1.2.2 (732a01da63, 2022-12-09)"
   sodipodi:docname="openToneLogo.svg"
   inkscape:export-filename="img\openToneLogo.png"
   inkscape:export-xdpi="96"
   inkscape:export-ydpi="96"
   xmlns:inkscape="http://www.inkscape.org/namespaces/inkscape"
   xmlns:sodipodi="http://sodipodi.sourceforge.net/DTD/sodipodi-0.dtd"
   xmlns="http://www.w3.org/2000/svg"
   xmlns:svg="http://www.w3.org/2000/svg">
  <sodipodi:namedview
     id="namedview7"
     pagecolor="#505050"
     bordercolor="#eeeeee"
     borderopacity="1"
     inkscape:showpageshadow="0"
     inkscape:pageopacity="0"
     inkscape:pagecheckerboard="0"
     inkscape:deskcolor="#505050"
     inkscape:document-units="mm"
     showgrid="false"
     inkscape:zoom="1"
     inkscape:cx="199"
     inkscape:cy="303"
     inkscape:window-width="1920"
     inkscape:window-height="1009"
     inkscape:window-x="1912"
     inkscape:window-y="-8"
     inkscape:window-maximized="1"
     inkscape:current-layer="Slider" />
  <defs
     id="defs2">
    <inkscape:path-effect
       effect="bspline"
       id="path-effect4159"
       is_visible="true"
       lpeversion="1"
       weight="33.333333"
       steps="2"
       helper_size="0"
       apply_no_weight="true"
       apply_with_weight="true"
       only_selected="false" />
    <inkscape:path-effect
       effect="bspline"
       id="path-effect4155"
       is_visible="true"
       lpeversion="1"
       weight="33.333333"
       steps="2"
       helper_size="0"
       apply_no_weight="true"
       apply_with_weight="true"
       only_selected="false" />
    <inkscape:path-effect
       effect="bspline"
       id="path-effect3625"
       is_visible="true"
       lpeversion="1"
       weight="33.333333"
       steps="2"
       helper_size="0"
       apply_no_weight="true"
       apply_with_weight="true"
       only_selected="false" />
    <inkscape:path-effect
       effect="bspline"
       id="path-effect3619"
       is_visible="true"
       lpeversion="1"
       weight="33.333333"
       steps="2"
       helper_size="0"
       apply_no_weight="true"
       apply_with_weight="true"
       only_selected="false" />
    <inkscape:path-effect
       effect="bspline"
       id="path-effect3409"
       is_visible="true"
       lpeversion="1"
       weight="33.333333"
       steps="2"
       helper_size="0"
       apply_no_weight="true"
       apply_with_weight="true"
       only_selected="false" />
    <inkscape:path-effect
       effect="bspline"
       id="path-effect3294"
       is_visible="true"
       lpeversion="1"
       weight="33.333333"
       steps="2"
       helper_size="0"
       apply_no_weight="true"
       apply_with_weight="true"
       only_selected="false" />
    <clipPath
       clipPathUnits="userSpaceOnUse"
       id="clipPath5819">
      <g
         id="g5837"
         style="display:inline"
         mask="none"
         clip-path="none">
        <rect
           style="fill:#0077ff;fill-opacity:1;stroke-width:0.130729"
           id="rect5821"
           width="6"
           height="96"
           x="56.999607"
           y="27"
           rx="3"
           ry="3" />
        <rect
           style="fill:#0077ff;fill-opacity:1;stroke-width:0.13073"
           id="rect5823"
           width="6.0000653"
           height="96"
           x="-93.000061"
           y="27"
           rx="3.0000327"
           ry="3"
           transform="scale(-1,1)" />
        <rect
           style="fill:#0077ff;fill-opacity:1;stroke-width:0.10674"
           id="rect5825"
           width="6"
           height="64"
           x="45"
           y="48"
           rx="3"
           ry="3" />
        <rect
           style="fill:#0077ff;fill-opacity:1;stroke-width:0.106741"
           id="rect5827"
           width="6.0000653"
           height="64"
           x="-105.00007"
           y="38"
           rx="3.0000327"
           ry="3"
           transform="scale(-1,1)" />
        <rect
           style="fill:#0077ff;fill-opacity:1;stroke-width:0.0754764"
           id="rect5829"
           width="6"
           height="32"
           x="33"
           y="69"
           rx="3"
           ry="3" />
        <rect
           style="fill:#0077ff;fill-opacity:1;stroke-width:0.0754768"
           id="rect5831"
           width="6.0000653"
           height="32"
           x="-117.00007"
           y="49"
           rx="3.0000327"
           ry="3"
           transform="scale(-1,1)" />
        <rect
           style="fill:#0077ff;fill-opacity:1;stroke-width:0.0321359"
           id="rect5833"
           width="6"
           height="10"
           x="21"
           y="80"
           rx="3"
           ry="2.9002492" />
        <rect
           style="display:inline;fill:#0077ff;fill-opacity:1;stroke-width:0.0321361"
           id="rect5835"
           width="6.0000653"
           height="10"
           x="-129.00006"
           y="55"
           rx="3.0000327"
           ry="2.9002492"
           transform="scale(-1,1)" />
      </g>
    </clipPath>
    <filter
       inkscape:collect="always"
       style="color-interpolation-filters:sRGB"
       id="filter6793"
       x="-4.8855429"
       y="-0.30534643"
       width="10.771086"
       height="1.6106929">
      <feGaussianBlur
         inkscape:collect="always"
         stdDeviation="8.142571"
         id="feGaussianBlur6795" />
    </filter>
  </defs>
  <g
     inkscape:label="Layer 1"
     inkscape:groupmode="layer"
     id="layer1"
     style="display:inline">
    <rect
       style="fill:#222831;fill-opacity:1;stroke-width:0.264583"
       id="background"
       width="150"
       height="150"
       x="0"
       y="0"
       rx="20.867512"
       ry="20.867512" />
    <g
       id="g6650"
       transform="matrix(1,0,0,1.3529412,1,-22.670589)"
       style="display:inline;fill:#1c2128;fill-opacity:1"
       inkscape:label="Slider Shadow">
      <rect
         style="fill:#1c2128;fill-opacity:1;stroke-width:0.141208"
         id="rect6646"
         width="12"
         height="85"
         x="69"
         y="32.5"
         rx="6"
         ry="4.6759849" />
      <rect
         style="fill:#1c2128;fill-opacity:1;stroke-width:0.0707425;filter:url(#filter6793)"
         id="rect6648"
         width="4"
         height="64"
         x="73"
         y="43"
         rx="2"
         ry="1.8127559" />
    </g>
    <g
       id="Slider"
       transform="matrix(1,0,0,1.3529412,0,-23.970589)"
       style="display:inline">
      <rect
         style="fill:#ff6b6b;fill-opacity:1;stroke-width:0.141208"
         id="rect1167"
         width="12"
         height="85"
         x="69"
         y="32.5"
         rx="6"
         ry="4.6759849" />
      <rect
         style="display:inline;fill:#222831;fill-opacity:1;stroke-width:0.0707425"
         id="rect8006"
         width="4"
         height="64"
         x="73"
         y="43"
         rx="2"
         ry="1.8127559"
         inkscape:label="Backup Slider Center" />
      <path
         style="fill:#1b2127;fill-opacity:1;stroke-width:0.0707425"
         d="m 73.795889,43.364607 c -0.06305,0.176687 -0.09819,0.364891 -0.09819,0.561093 v 60.74427 c 0,1.00426 0.892691,1.79387 2.000394,1.81276 0.716896,0.0122 1.015972,-0.31025 1.201477,-0.73359 -0.259939,0.72729 -1.010478,1.2509 -1.901692,1.2509 -1.107999,0 -1.999878,-0.8085 -1.999878,-1.81276 V 44.812603 c 0,-0.59408 0.313531,-1.117773 0.797884,-1.447996 z"
         id="path8012"
         sodipodi:nodetypes="sssscsssss" />
    </g>
    <g
       id="backup"
       style="display:inline;fill:#1c2128;fill-opacity:1"
       inkscape:label="Shadow"
       transform="translate(0.8,0.8)">
      <rect
         style="fill:#1c2128;fill-opacity:1;stroke-width:0.130729"
         id="rect3482"
         width="6"
         height="96"
         x="56.999607"
         y="27"
         rx="3"
         ry="3" />
      <rect
         style="fill:#1c2128;fill-opacity:1;stroke-width:0.13073"
         id="rect3484"
         width="6.0000653"
         height="96"
         x="-93.000061"
         y="27"
         rx="3.0000327"
         ry="3"
         transform="scale(-1,1)" />
      <rect
         style="fill:#1c2128;fill-opacity:1;stroke-width:0.10674"
         id="rect3486"
         width="6"
         height="64"
         x="45"
         y="48"
         rx="3"
         ry="3" />
      <rect
         style="fill:#1c2128;fill-opacity:1;stroke-width:0.106741"
         id="rect3488"
         width="6.0000653"
         height="64"
         x="-105.00007"
         y="38"
         rx="3.0000327"
         ry="3"
         transform="scale(-1,1)" />
      <rect
         style="fill:#1c2128;fill-opacity:1;stroke-width:0.0754764"
         id="rect3490"
         width="6"
         height="32"
         x="33"
         y="69"
         rx="3"
         ry="3" />
      <rect
         style="fill:#1c2128;fill-opacity:1;stroke-width:0.0754768"
         id="rect3492"
         width="6.0000653"
         height="32"
         x="-117.00007"
         y="49"
         rx="3.0000327"
         ry="3"
         transform="scale(-1,1)" />
      <rect
         style="fill:#1c2128;fill-opacity:1;stroke-width:0.0321359"
         id="rect3494"
         width="6"
         height="10"
         x="21"
         y="80"
         rx="3"
         ry="2.9002492" />
      <rect
         style="fill:#1c2128;fill-opacity:1;stroke-width:0.0321361"
         id="rect3496"
         width="6.0000653"
         height="10"
         x="-129.00006"
         y="55"
         rx="3.0000327"
         ry="2.9002492"
         transform="scale(-1,1)" />
    </g>
    <g
       id="g5781"
       style="display:inline"
       clip-path="url(#clipPath5819)">
      <g
         id="g5533"
         style="display:inline"
         transform="translate(0,-7.9999998)">
        <path
           style="fill:#449cff;fill-opacity:1;stroke:#449cff;stroke-width:0.126665;stroke-opacity:1"
           d="M 33.059589,88.182293 C 27.705682,87.756433 23.922045,87.116097 18.17644,85.663495 15.55241,85.000086 9.7021384,83.383805 9.628089,83.301803 9.573784,83.241663 9.8289268,74.784077 9.8867919,74.72621 c 0.027577,-0.02757 1.0556901,0.219921 2.2846971,0.549997 8.318997,2.234237 13.620402,3.148843 19.241453,3.319563 6.643044,0.201761 12.409971,-0.999429 17.859777,-3.720005 4.202887,-2.098108 7.384139,-4.321098 15.896468,-11.108121 6.093592,-4.858522 8.547526,-6.721546 11.273194,-8.558606 6.536336,-4.405387 11.615656,-6.577118 17.543113,-7.500795 1.501185,-0.233928 2.327288,-0.277579 5.383268,-0.284445 3.910758,-0.0088 5.324568,0.10233 8.803218,0.691867 8.11125,1.374634 16.45167,4.141128 31.36194,10.402662 l 3.62229,1.521169 0.09,4.120105 c 0.0495,2.266058 0.0658,4.144282 0.0362,4.173834 -0.0296,0.02955 -1.30108,-0.466469 -2.8256,-1.102268 -14.30796,-5.967066 -23.2001,-8.732446 -31.77818,-9.882735 -2.4236,-0.324998 -7.36066,-0.457716 -9.563218,-0.257077 -7.884806,0.718243 -14.396276,3.596968 -23.586093,10.427425 -1.134973,0.843584 -4.400558,3.396882 -7.256857,5.673995 -7.336695,5.848993 -10.290553,8.009183 -13.662043,9.991214 -4.978734,2.926895 -9.876399,4.47054 -15.699489,4.948161 -1.483826,0.121705 -4.614402,0.148534 -5.851361,0.05014 z"
           id="path5239" />
        <path
           style="fill:#228aff;fill-opacity:1;stroke:#228aff;stroke-width:0.478734;stroke-opacity:1"
           d="M 124.94963,363.52472 C 104.71439,361.91517 90.414028,359.495 68.698357,354.00485 58.780762,351.49748 36.6695,345.3887 36.389628,345.07877 c -0.205249,-0.22729 0.759072,-32.19298 0.977775,-32.41169 0.104227,-0.10422 3.990011,0.8312 8.635077,2.07873 31.441879,8.44436 51.478684,11.90114 72.7236,12.54638 25.10757,0.76256 46.90383,-3.77737 67.50152,-14.05986 15.88493,-7.92986 27.90856,-16.33171 60.08114,-41.98345 23.0309,-18.36292 32.30561,-25.40427 42.60735,-32.34749 24.70426,-16.65028 43.90169,-24.8584 66.30468,-28.34946 5.67377,-0.88414 8.79605,-1.04912 20.34621,-1.07507 14.78082,-0.0332 20.12435,0.38676 33.27202,2.61493 30.65668,5.19547 62.17954,15.65151 118.5333,39.31715 l 13.69055,5.7493 0.34005,15.57205 c 0.18704,8.56463 0.2487,15.66343 0.13701,15.77512 -0.11169,0.11169 -4.91746,-1.76303 -10.67946,-4.16605 -54.0773,-22.55269 -87.6854,-33.00452 -120.10651,-37.35207 -9.16006,-1.22834 -27.81979,-1.72995 -36.14443,-0.97163 -29.80084,2.71462 -54.41112,13.59484 -89.14429,39.41074 -4.28966,3.18835 -16.63203,12.83861 -27.42749,21.44502 -27.72924,22.10643 -38.89343,30.27093 -51.63607,37.76207 -18.81726,11.06228 -37.32812,16.89653 -59.33665,18.70171 -5.60816,0.45999 -17.44026,0.56139 -22.11538,0.18952 z"
           id="path5241"
           transform="scale(0.26458333)" />
        <path
           style="fill:#0077ff;fill-opacity:1;stroke:#0077ff;stroke-width:0.127;stroke-dasharray:none;stroke-opacity:1"
           d="m 33.059589,104.38229 c -5.353907,-0.42586 -9.137544,-1.06619 -14.883149,-2.5188 -2.62403,-0.66341 -8.4743016,-2.27968 -8.548351,-2.36169 -0.054305,-0.0601 0.2008378,-8.517723 0.2587029,-8.57559 0.027577,-0.02757 1.0556901,0.219921 2.2846971,0.549997 8.318997,2.234237 13.620402,3.148843 19.241453,3.319563 6.643044,0.201761 12.409971,-0.999429 17.859777,-3.720005 4.202887,-2.098108 7.384139,-4.321098 15.896468,-11.108121 6.093592,-4.858522 8.547526,-6.721546 11.273194,-8.558606 6.536336,-4.405387 11.615656,-6.577118 17.543113,-7.500795 1.501185,-0.233928 2.327288,-0.277579 5.383268,-0.284445 3.910758,-0.0088 5.324568,0.10233 8.803218,0.691867 8.11125,1.374634 16.45167,4.141128 31.36194,10.402662 l 3.62229,1.521169 0.09,4.120105 c 0.0495,2.266058 0.0658,4.144282 0.0362,4.173834 -0.0296,0.02955 -1.30108,-0.466469 -2.8256,-1.102268 -14.30796,-5.967066 -23.2001,-8.732446 -31.77818,-9.882735 -2.4236,-0.324998 -7.36066,-0.457716 -9.563218,-0.257077 -7.884806,0.718243 -14.396276,3.596968 -23.586093,10.427425 -1.134973,0.843584 -4.400558,3.396882 -7.256857,5.673995 -7.336695,5.848993 -10.290553,8.009183 -13.662043,9.991215 -4.978734,2.92689 -9.876399,4.47054 -15.699489,4.94816 -1.483826,0.1217 -4.614402,0.14853 -5.851361,0.0501 z"
           id="path5243" />
        <path
           style="fill:#0067d9;fill-opacity:1;stroke:#0077ff;stroke-width:0.126665;stroke-opacity:1"
           d="m 33.059589,112.18229 c -5.353907,-0.42586 -9.137544,-1.06619 -14.883149,-2.5188 -2.62403,-0.6634 -8.4743016,-2.27969 -8.548351,-2.36169 -0.054305,-0.0601 0.2008378,-8.517724 0.2587029,-8.575591 0.027577,-0.02757 1.0556901,0.219921 2.2846971,0.549997 8.318997,2.234234 13.620402,3.148844 19.241453,3.319564 6.643044,0.20176 12.409971,-0.99943 17.859777,-3.720006 4.202887,-2.098108 7.384139,-4.321098 15.896468,-11.108121 6.093592,-4.858522 8.547526,-6.721546 11.273194,-8.558606 6.536336,-4.405387 11.615656,-6.577118 17.543113,-7.500795 1.501185,-0.233928 2.327288,-0.277579 5.383268,-0.284445 3.910758,-0.0088 5.324568,0.10233 8.803218,0.691867 8.11125,1.374634 16.45167,4.141128 31.36194,10.402662 l 3.62229,1.521169 0.09,4.120105 c 0.0495,2.266058 0.0658,4.144282 0.0362,4.173834 -0.0296,0.02955 -1.30108,-0.466469 -2.8256,-1.102268 -14.30796,-5.967066 -23.2001,-8.732446 -31.77818,-9.882735 -2.4236,-0.324998 -7.36066,-0.457716 -9.563218,-0.257077 -7.884806,0.718243 -14.396276,3.596968 -23.586093,10.427425 -1.134973,0.843584 -4.400558,3.396882 -7.256857,5.673995 -7.336695,5.848996 -10.290553,8.009186 -13.662043,9.991216 -4.978734,2.92689 -9.876399,4.47054 -15.699489,4.94816 -1.483826,0.1217 -4.614402,0.14853 -5.851361,0.0501 z"
           id="path5248" />
        <path
           style="fill:#004a9f;fill-opacity:1;stroke:#004a9f;stroke-width:0.127;stroke-dasharray:none;stroke-opacity:1"
           d="m 33.059589,120.382 c -5.353907,-0.42586 -9.137544,-1.06619 -14.883149,-2.5188 -2.62403,-0.66341 -8.4743016,-2.27968 -8.548351,-2.36169 -0.054305,-0.0601 0.2008378,-8.51772 0.2587029,-8.57559 0.027577,-0.0276 1.0556901,0.21992 2.2846971,0.55 8.318997,2.23424 13.620402,3.14884 19.241453,3.31956 6.643044,0.20176 12.409971,-0.99943 17.859777,-3.72 4.202887,-2.09811 7.384139,-4.3211 15.896468,-11.108124 6.093592,-4.858522 8.547526,-6.721546 11.273194,-8.558606 6.536336,-4.405387 11.615656,-6.577118 17.543113,-7.500795 1.501185,-0.233928 2.327288,-0.277579 5.383268,-0.284445 3.910758,-0.0088 5.324568,0.10233 8.803218,0.691867 8.11125,1.374634 16.45167,4.141128 31.36194,10.402662 l 3.62229,1.521169 0.09,4.120105 c 0.0495,2.266058 0.0658,4.144277 0.0362,4.173837 -0.0296,0.0296 -1.30108,-0.46647 -2.8256,-1.102271 -14.30796,-5.967066 -23.2001,-8.732446 -31.77818,-9.882735 -2.4236,-0.324998 -7.36066,-0.457716 -9.563218,-0.257077 -7.884806,0.718243 -14.396276,3.596968 -23.586093,10.427425 -1.134973,0.843588 -4.400558,3.396878 -7.256857,5.673998 -7.336695,5.84899 -10.290553,8.00918 -13.662043,9.99121 -4.978734,2.92689 -9.876399,4.47054 -15.699489,4.94816 -1.483826,0.1217 -4.614402,0.14853 -5.851361,0.0501 z"
           id="path5250" />
      </g>
      <g
         id="rect5687">
        <path
           style="color:#000000;fill:#004a9f;stroke-width:0.127;-inkscape-stroke:none;fill-opacity:1"
           d="M 43.662847,111.06152 94.964356,78.31519 c 1.400928,-0.894229 50.732734,11.471327 50.752734,13.133207 l 0.63333,52.618553 c 0.02,1.66188 -1.338,3 -3,3 H 9.4487329 c -1.662,0 -3.0483738,-1.3387 -3,-3 l 1.0766533,-36.97541 c 0.1995726,-6.85391 34.7365328,4.86421 36.1374608,3.96998 z"
           id="path5691"
           sodipodi:nodetypes="sssssssss" />
        <path
           style="color:#000000;fill:#004a9f;-inkscape-stroke:none"
           d="m 9.4492188,106.87891 c -1.696079,0 -3.0644532,1.36642 -3.0644532,3.0625 v 34.125 c 0,1.69608 1.3683742,3.06445 3.0644532,3.06445 H 143.34961 c 1.69608,0 3.06445,-1.36837 3.06445,-3.06445 v -34.125 c 0,-1.69608 -1.36837,-3.0625 -3.06445,-3.0625 z m 0,0.12695 H 143.34961 c 1.62792,0 2.9375,1.30763 2.9375,2.93555 v 34.125 c 0,1.62791 -1.30958,2.9375 -2.9375,2.9375 H 9.4492188 c -1.6279178,0 -2.9375001,-1.30959 -2.9375001,-2.9375 v -34.125 c 0,-1.62792 1.3095823,-2.93555 2.9375001,-2.93555 z"
           id="path5693" />
      </g>
      <g
         id="g5768"
         transform="matrix(-1,0,0,-0.90156222,148.49967,137.01069)">
        <path
           style="color:#000000;fill:#449cff;fill-opacity:1;stroke-width:0.127;-inkscape-stroke:none"
           d="M 56.739446,105.29951 104.27919,71.758417 c 1.36382,-0.962225 42.15645,2.331436 42.15443,3.993462 l -0.0832,68.315071 c -0.002,1.66203 -1.338,3 -3,3 H 9.4487329 c -1.662,0 -2.8236692,-1.34938 -3,-3 L 1.0766527,93.779303 C 0.3491771,86.969458 55.375628,106.26173 56.739446,105.29951 Z"
           id="path5764"
           sodipodi:nodetypes="sssssssss" />
      </g>
    </g>
  </g>
</svg>
